# File created by Blade
# Date/Time:  Thu Jan 22 16:04:59 2015
# Frame Rate: 120.000 fps
#------------------------------------------------------
:FULLY-SPECIFIED
:DEGREES
2576
root 3.649663 36.974922 5.904059 -1.405594 -5.799960 2.380008
RightUpLeg 8.783789 -3.274812 -10.038632
RightLeg -4.173225 -0.000000 0.000000
RightFoot -10.143793 -11.224351 20.571511
RightToeBase 11.675420 -0.000000 -0.000000
LeftUpLeg 7.448006 0.174791 6.011588
LeftLeg -0.223337 -0.000000 0.000000
LeftFoot -7.432192 6.306127 -22.468469
LeftToeBase 6.708851 -0.000000 -0.000000
Spine 7.791002 -1.570974 -4.114645
RightShoulder -12.730384 -30.473849 -27.366885
RightArm -10.348815 24.642197 59.076334
RightForeArm 39.049609 -0.000000 12.187221
RightHand 3.257006 -0.000000 -19.802831
RightHandThumb1 -24.326973 -0.000000 -32.862282
LeftShoulder -48.846807 38.010372 -1.174781
LeftArm 25.218718 -48.834312 -62.780173
LeftForeArm 21.065749 -0.000000 5.320906
LeftHand -29.735889 -0.000000 12.425273
LeftHandThumb1 -26.253704 0.000000 33.147579
Head 28.129017 12.795576 -0.208957
2577
root 3.653151 36.973093 5.904234 -1.461473 -5.703726 2.411357
RightUpLeg 8.861951 -3.287526 -10.072080
RightLeg -4.169485 -0.000000 0.000000
RightFoot -10.201484 -11.295952 20.575645
RightToeBase 11.661409 -0.000000 -0.000000
LeftUpLeg 7.488577 0.137719 5.983595
LeftLeg -0.235484 -0.000000 0.000000
LeftFoot -7.371542 6.235066 -22.416896
LeftToeBase 6.575894 -0.000000 -0.000000
Spine 7.892439 -1.647298 -4.122656
RightShoulder -12.739123 -30.525410 -27.214043
RightArm -10.228492 24.586678 59.170927
RightForeArm 38.989936 -0.000000 12.293108
RightHand 3.152358 0.000000 -19.901260
RightHandThumb1 -24.326973 -0.000000 -32.862282
LeftShoulder -48.947800 38.114967 -1.408954
LeftArm 25.633250 -48.885514 -63.302630
LeftForeArm 20.384060 -0.000000 5.333905
LeftHand -29.880515 0.000000 12.958557
LeftHandThumb1 -26.253704 0.000000 33.147579
Head 28.660624 12.615389 -0.271100
2578
root 3.656590 36.971669 5.904171 -1.515057 -5.619247 2.447259
RightUpLeg 8.930238 -3.320640 -10.112415
RightLeg -4.160532 -0.000000 0.000000
RightFoot -10.245315 -11.337607 20.560623
RightToeBase 11.651483 -0.000000 -0.000000
LeftUpLeg 7.527523 0.122616 5.954559
LeftLeg -0.251908 -0.000000 0.000000
LeftFoot -7.352066 6.162648 -22.465690
LeftToeBase 6.686846 -0.000000 -0.000000
Spine 7.987169 -1.710439 -4.135984
RightShoulder -12.746828 -30.652994 -27.059097
RightArm -10.071323 24.533295 59.313824
RightForeArm 38.987308 -0.000000 12.458246
RightHand 3.184506 -0.000000 -19.802466
RightHandThumb1 -24.326973 -0.000000 -32.862282
LeftShoulder -49.077215 38.234691 -1.692823
LeftArm 26.091502 -48.860628 -63.797488
LeftForeArm 20.130772 -0.000000 5.306715
LeftHand -29.985304 -0.000000 13.613035
LeftHandThumb1 -26.253704 0.000000 33.147579
Head 29.183710 12.429740 -0.338736
2579
root 3.659482 36.970045 5.902997 -1.567431 -5.551942 2.473776
RightUpLeg 8.992494 -3.324871 -10.140422
RightLeg -4.152922 -0.000000 0.000000
RightFoot -10.284445 -11.387547 20.536570
RightToeBase 11.694652 -0.000000 -0.000000
LeftUpLeg 7.574810 0.110748 5.932907
LeftLeg -0.275204 -0.000000 0.000000
LeftFoot -7.293594 6.108685 -22.405507
LeftToeBase 6.586961 -0.000000 -0.000000
Spine 8.087408 -1.785813 -4.135774
RightShoulder -12.746542 -30.762256 -26.934506
RightArm -9.782881 24.352839 59.491500
RightForeArm 39.122611 -0.000000 12.419760
RightHand 3.233773 -0.000000 -19.877734
RightHandThumb1 -24.326973 -0.000000 -32.862282
LeftShoulder -49.250610 38.359320 -2.029190
LeftArm 26.570546 -48.721001 -64.221704
LeftForeArm 19.961341 -0.000000 5.203221
LeftHand -30.000183 -0.000000 13.806119
LeftHandThumb1 -26.253704 0.000000 33.147579
Head 29.687235 12.272166 -0.417570
2580
root 3.661812 36.968054 5.901943 -1.618281 -5.501186 2.505690
RightUpLeg 9.046937 -3.349558 -10.178281
RightLeg -4.140786 -0.000000 0.000000
RightFoot -10.315009 -11.404694 20.516219
RightToeBase 11.601161 -0.000000 -0.000000
LeftUpLeg 7.625380 0.057480 5.903625
LeftLeg -0.307660 -0.000000 0.000000
LeftFoot -7.290395 6.077254 -22.512470
LeftToeBase 6.716748 -0.000000 -0.000000
Spine 8.175766 -1.842491 -4.149185
RightShoulder -12.724863 -30.880543 -26.834145
RightArm -9.515697 24.163857 59.688810
RightForeArm 39.331177 -0.000000 12.402872
RightHand 3.326548 0.000000 -19.924444
RightHandThumb1 -24.326973 -0.000000 -32.862282
LeftShoulder -49.403053 38.475698 -2.342211
LeftArm 26.932155 -48.458294 -64.504538
LeftForeArm 19.872554 0.000000 5.149776
LeftHand -30.091918 -0.000000 13.796457
LeftHandThumb1 -26.253704 0.000000 33.147579
Head 30.176650 12.103136 -0.481626
